<svg xmlns="http://www.w3.org/2000/svg" viewBox="0 0 32 32">
  <defs>
    <clipPath id="badge">
      <rect width="32" height="32" rx="7"/>
    </clipPath>
  </defs>
  <g clip-path="url(#badge)">
    <!-- Primary blue badge background -->
    <rect width="32" height="32" fill="#345995"/>
    <!-- White monstera leaf (outer silhouette) -->
    <path fill="white" d="M15.7 28C11.6 30.8 4 29.2 2 22.3C0 15.5 3.5 7.4 10.1 4.1C12.7 2.8 14.5 2.3 16 2C23.3 2.7 29.7 8.6 30 16.7C30.3 24.1 25.6 29.8 20 30C17.8 30 16.5 29.2 15.7 28Z"/>
    <!-- Petiole (stem) -->
    <path d="M16.2 28.7C16.5 30.5 16.8 31.9 17.5 33.5" stroke="white" stroke-width="1" stroke-linecap="round" fill="none"/>
    <!-- Blue slit cuts — left side (4 lobes, inner→edge) -->
    <polygon fill="#345995" points="15.2,7.9 7.6,0.4 6.0,2.3 14.9,8.3"/>
    <polygon fill="#345995" points="14.8,12.3 0.3,8.2 0,10.6 14.7,12.8"/>
    <polygon fill="#345995" points="14.8,16.8 0,16.6 0,19.1 14.8,17.3"/>
    <polygon fill="#345995" points="15.1,21.5 0.3,25.2 1.1,27.6 15.3,21.7"/>
    <!-- Blue slit cuts — right side (4 lobes, inner→edge) -->
    <polygon fill="#345995" points="17.0,8.6 27.1,3.2 25.7,1.1 16.7,8.2"/>
    <polygon fill="#345995" points="17.1,13.3 32,11.8 32,9.4 17.0,12.8"/>
    <polygon fill="#345995" points="16.9,17.9 32,20.5 32,18.1 16.9,17.4"/>
    <polygon fill="#345995" points="16.4,22.5 29.4,29.0 30.4,26.7 16.6,22.1"/>
  </g>
</svg>
